<svg width="120" height="120" viewBox="0 0 120 120" xmlns="http://www.w3.org/2000/svg">
    <g transform="translate(60,60)">
        <!-- White background circle -->
        <circle cx="0" cy="0" r="50" fill="white" stroke="none"/>
        
        <!-- Compass circle -->
        <circle cx="0" cy="0" r="35" fill="none" stroke="black" stroke-width="2"/>
        <circle cx="0" cy="0" r="25" fill="none" stroke="black" stroke-width="1"/>
        
        <!-- Cardinal directions -->
        <g stroke="black" stroke-width="2">
            <line x1="0" y1="-35" x2="0" y2="-25"/>
            <line x1="0" y1="35" x2="0" y2="25"/>
            <line x1="-35" y1="0" x2="-25" y2="0"/>
            <line x1="35" y1="0" x2="25" y2="0"/>
        </g>
        
        <!-- Compass needle -->
        <g fill="black">
            <polygon points="0,-20 -3,0 0,3 3,0"/>
            <polygon points="0,20 -3,0 0,-3 3,0" fill="white" stroke="black" stroke-width="1"/>
        </g>
        
        <!-- Center pivot -->
        <circle cx="0" cy="0" r="3" fill="black"/>
        <circle cx="0" cy="0" r="1" fill="white"/>
        
        <!-- Guiding stars -->
        <g fill="black">
            <!-- North star -->
            <g transform="translate(0,-45)">
                <polygon points="0,-4 1,0 4,0 1,1 2,4 0,2 -2,4 -1,1 -4,0 -1,0"/>
            </g>
            
            <!-- Constellation pattern -->
            <circle cx="-40" cy="-30" r="1.5"/>
            <circle cx="42" cy="-25" r="1.5"/>
            <circle cx="-45" cy="20" r="1.5"/>
            <circle cx="38" cy="35" r="1.5"/>
            
            <!-- Connecting constellation lines -->
            <g stroke="black" stroke-width="0.5" opacity="0.5">
                <line x1="-40" y1="-30" x2="0" y2="-45"/>
                <line x1="42" y1="-25" x2="0" y2="-45"/>
                <line x1="-40" y1="-30" x2="-45" y2="20"/>
                <line x1="42" y1="-25" x2="38" y2="35"/>
            </g>
        </g>
        
        <!-- Data path indicators -->
        <g stroke="black" stroke-width="1" fill="none" opacity="0.4">
            <path d="M15,-30 Q25,-20 30,-10"/>
            <path d="M-15,30 Q-25,20 -30,10"/>
        </g>
    </g>
</svg>